<mxfile host="Electron" agent="Mozilla/5.0 (Windows NT 10.0; Win64; x64) AppleWebKit/537.36 (KHTML, like Gecko) draw.io/27.0.9 Chrome/134.0.6998.205 Electron/35.4.0 Safari/537.36" version="27.0.9">
  <diagram name="PÃ¡gina-1" id="gpEqBLVLXCsYA9rg6Q8K">
    <mxGraphModel dx="719" dy="432" grid="1" gridSize="10" guides="1" tooltips="1" connect="1" arrows="1" fold="1" page="1" pageScale="1" pageWidth="827" pageHeight="1169" math="0" shadow="0">
      <root>
        <mxCell id="0" />
        <mxCell id="1" parent="0" />
        <mxCell id="x06fQI6ijKoCF8Ykb2uk-2" style="edgeStyle=orthogonalEdgeStyle;rounded=0;orthogonalLoop=1;jettySize=auto;html=1;exitX=0.5;exitY=1;exitDx=0;exitDy=0;" edge="1" parent="1" source="x06fQI6ijKoCF8Ykb2uk-1">
          <mxGeometry relative="1" as="geometry">
            <mxPoint x="240.31034482758628" y="220" as="targetPoint" />
          </mxGeometry>
        </mxCell>
        <mxCell id="x06fQI6ijKoCF8Ykb2uk-1" value="Inicio" style="ellipse;whiteSpace=wrap;html=1;" vertex="1" parent="1">
          <mxGeometry x="200" y="120" width="80" height="60" as="geometry" />
        </mxCell>
        <mxCell id="x06fQI6ijKoCF8Ykb2uk-4" style="edgeStyle=orthogonalEdgeStyle;rounded=0;orthogonalLoop=1;jettySize=auto;html=1;exitX=0.5;exitY=1;exitDx=0;exitDy=0;" edge="1" parent="1" source="x06fQI6ijKoCF8Ykb2uk-3">
          <mxGeometry relative="1" as="geometry">
            <mxPoint x="240.31034482758628" y="339.9999999999999" as="targetPoint" />
          </mxGeometry>
        </mxCell>
        <mxCell id="x06fQI6ijKoCF8Ykb2uk-3" value="Inteiro A,B,S" style="rounded=1;whiteSpace=wrap;html=1;" vertex="1" parent="1">
          <mxGeometry x="190" y="220" width="100" height="50" as="geometry" />
        </mxCell>
        <mxCell id="x06fQI6ijKoCF8Ykb2uk-6" style="edgeStyle=orthogonalEdgeStyle;rounded=0;orthogonalLoop=1;jettySize=auto;html=1;exitX=0.5;exitY=1;exitDx=0;exitDy=0;" edge="1" parent="1" source="x06fQI6ijKoCF8Ykb2uk-5">
          <mxGeometry relative="1" as="geometry">
            <mxPoint x="240.31034482758628" y="449.9999999999999" as="targetPoint" />
          </mxGeometry>
        </mxCell>
        <mxCell id="x06fQI6ijKoCF8Ykb2uk-5" value="Leia A" style="shape=manualInput;whiteSpace=wrap;html=1;" vertex="1" parent="1">
          <mxGeometry x="205" y="330" width="70" height="70" as="geometry" />
        </mxCell>
        <mxCell id="x06fQI6ijKoCF8Ykb2uk-8" style="edgeStyle=orthogonalEdgeStyle;rounded=0;orthogonalLoop=1;jettySize=auto;html=1;exitX=1;exitY=0.5;exitDx=0;exitDy=0;" edge="1" parent="1" source="x06fQI6ijKoCF8Ykb2uk-7">
          <mxGeometry relative="1" as="geometry">
            <mxPoint x="330" y="475" as="targetPoint" />
          </mxGeometry>
        </mxCell>
        <mxCell id="x06fQI6ijKoCF8Ykb2uk-7" value="Leia B" style="shape=manualInput;whiteSpace=wrap;html=1;" vertex="1" parent="1">
          <mxGeometry x="200" y="440" width="80" height="70" as="geometry" />
        </mxCell>
        <mxCell id="x06fQI6ijKoCF8Ykb2uk-9" value="S = A + B" style="rounded=1;whiteSpace=wrap;html=1;" vertex="1" parent="1">
          <mxGeometry x="330" y="455" width="100" height="55" as="geometry" />
        </mxCell>
        <mxCell id="x06fQI6ijKoCF8Ykb2uk-12" style="edgeStyle=orthogonalEdgeStyle;rounded=0;orthogonalLoop=1;jettySize=auto;html=1;exitX=0;exitY=0;exitDx=56.25;exitDy=0;exitPerimeter=0;entryX=0;entryY=0;entryDx=56.25;entryDy=0;entryPerimeter=0;" edge="1" parent="1" source="x06fQI6ijKoCF8Ykb2uk-10" target="x06fQI6ijKoCF8Ykb2uk-10">
          <mxGeometry relative="1" as="geometry">
            <mxPoint x="406" y="290" as="targetPoint" />
          </mxGeometry>
        </mxCell>
        <mxCell id="x06fQI6ijKoCF8Ykb2uk-10" value="S" style="shape=display;whiteSpace=wrap;html=1;" vertex="1" parent="1">
          <mxGeometry x="330" y="360" width="100" height="40" as="geometry" />
        </mxCell>
        <mxCell id="x06fQI6ijKoCF8Ykb2uk-13" value="FIM" style="ellipse;whiteSpace=wrap;html=1;" vertex="1" parent="1">
          <mxGeometry x="342.5" y="250" width="75" height="50" as="geometry" />
        </mxCell>
        <mxCell id="x06fQI6ijKoCF8Ykb2uk-15" style="edgeStyle=orthogonalEdgeStyle;rounded=0;orthogonalLoop=1;jettySize=auto;html=1;exitX=0.5;exitY=0;exitDx=0;exitDy=0;entryX=0.498;entryY=1.017;entryDx=0;entryDy=0;entryPerimeter=0;" edge="1" parent="1" source="x06fQI6ijKoCF8Ykb2uk-9" target="x06fQI6ijKoCF8Ykb2uk-10">
          <mxGeometry relative="1" as="geometry" />
        </mxCell>
        <mxCell id="x06fQI6ijKoCF8Ykb2uk-16" style="edgeStyle=orthogonalEdgeStyle;rounded=0;orthogonalLoop=1;jettySize=auto;html=1;exitX=0;exitY=0;exitDx=52.5;exitDy=0;exitPerimeter=0;entryX=0.535;entryY=1;entryDx=0;entryDy=0;entryPerimeter=0;" edge="1" parent="1" source="x06fQI6ijKoCF8Ykb2uk-10" target="x06fQI6ijKoCF8Ykb2uk-13">
          <mxGeometry relative="1" as="geometry" />
        </mxCell>
      </root>
    </mxGraphModel>
  </diagram>
</mxfile>
